<svg xmlns="http://www.w3.org/2000/svg" xmlns:xlink="http://www.w3.org/1999/xlink" viewBox="0 0 96 96"><defs><style>.cls-1{fill:url(#linear-gradient);}.cls-2{fill:#f9f5ff;fill-rule:evenodd;}</style><linearGradient id="linear-gradient" x1="-58.85" y1="-258.15" x2="-150.15" y2="-166.85" gradientTransform="translate(-164.5 152.5) rotate(90)" gradientUnits="userSpaceOnUse"><stop offset="0" stop-color="#701cfd"/><stop offset="0.23" stop-color="#7d1dfe"/><stop offset="0.7" stop-color="#9520ff"/><stop offset="1" stop-color="#9d21ff"/></linearGradient></defs><title>icon</title><g id="Layer_1" data-name="Layer 1"><rect class="cls-1" width="96" height="96" rx="8"/><path class="cls-2" d="M33.3,19.7c2.1.7,6.1,3.4,6.6,4.5s.1.3-.2.5S36,30.4,33.5,38a234.7,234.7,0,0,0-7.2,28.6,15.8,15.8,0,0,0-.1,4.3c.3.3,2.2-1.7,3.5-3.6,3.7-5.2,8.4-14.8,13.1-26.5a95.8,95.8,0,0,0,3.7-10.4c1-4.4,1.9-7.1,2.4-7.6s1.1-.1,2.3.5a26.2,26.2,0,0,1,4.9,3.3l.9.9-.3.3c-1.7,1.5-6,17.9-8.1,30.9-.5,3.1-.9,6.2-1.1,8.3a15.7,15.7,0,0,0,0,3.9c.3.3,2-1.6,3.3-3.5s2.4-4.1,3.6-6.4c5.8-11.1,12.3-28.6,14-37.5a8.3,8.3,0,0,0,.1-3.5c-.2-.3-.1-.3.4-.2A10.2,10.2,0,0,1,72,21.4c2.2,1.7,4.6,4.4,4.6,5.4S74.4,33.6,73.2,37C69,48.6,64.4,59.2,60.1,66.7a36.6,36.6,0,0,1-5.7,8.2c-1.7,1.7-2.7,2-4.5,1.3-3.5-1.4-7.4-4.9-8.3-7.5s-.5-5.6.5-13.8c.2-1.4.3-2.7.3-2.7a21,21,0,0,0-1,2.5C37.6,65.5,34.5,71.9,31.6,75c-1.3,1.4-2.2,1.8-3.4,1.5-2.8-.7-7.2-4.6-8.4-7.5s-.4-5.4,1.3-14a222.1,222.1,0,0,1,7.1-26.7c1.7-5.1,2.8-8,3.5-8.7s.3-.2.7-.1l.9.2Z"/></g></svg>