<svg xmlns="http://www.w3.org/2000/svg" xmlns:xlink="http://www.w3.org/1999/xlink" viewBox="0 0 96 96"><defs><style>.cls-1{fill:url(#linear-gradient);}.cls-2{fill:#f9f5ff;}</style><linearGradient id="linear-gradient" x1="58.15" y1="-141.15" x2="-33.15" y2="-49.85" gradientTransform="translate(-47.5 35.5) rotate(90)" gradientUnits="userSpaceOnUse"><stop offset="0" stop-color="#701cfd"/><stop offset="0.23" stop-color="#7d1dfe"/><stop offset="0.7" stop-color="#9520ff"/><stop offset="1" stop-color="#9d21ff"/></linearGradient></defs><title>richicons</title><g id="Layer_1" data-name="Layer 1"><rect class="cls-1" width="96" height="96" rx="8"/><path class="cls-2" d="M27.2,34.1H14.1a2.6,2.6,0,0,1-2.6-2.6V18.4a2.6,2.6,0,0,1,2.6-2.6H27.2a2.6,2.6,0,0,1,2.6,2.6V31.5A2.6,2.6,0,0,1,27.2,34.1ZM14.4,18.4a.3.3,0,0,0-.3.3V31.2a.3.3,0,0,0,.3.3H26.9a.3.3,0,0,0,.3-.3V18.7a.3.3,0,0,0-.3-.3Z"/><path class="cls-2" d="M19.9,28.3l-.5-.2L17.1,26a.9.9,0,0,1-.1-1.3.8.8,0,0,1,1.2-.1l1.6,1.5L23,21.9a.8.8,0,0,1,1.2-.1.9.9,0,0,1,.1,1.3L20.6,28l-.6.3Z"/><rect class="cls-2" x="36.1" y="21.9" width="46" height="4.36" rx="1"/><path class="cls-2" d="M27.2,57.7H14.1a2.6,2.6,0,0,1-2.6-2.6V41.9a2.6,2.6,0,0,1,2.6-2.6H27.2a2.6,2.6,0,0,1,2.6,2.6V55.1A2.6,2.6,0,0,1,27.2,57.7ZM14.4,42c-.2,0-.3.1-.3.2V54.8c0,.1.1.2.3.2H26.9c.2,0,.3-.1.3-.2V42.2c0-.1-.1-.2-.3-.2Z"/><path class="cls-2" d="M19.9,51.9l-.5-.2-2.3-2.1a1.1,1.1,0,0,1-.1-1.4.9.9,0,0,1,1.2-.1l1.6,1.5L23,45.5a.8.8,0,0,1,1.2-.2,1.1,1.1,0,0,1,.1,1.4l-3.7,4.9c-.2.1-.4.3-.6.3Z"/><rect class="cls-2" x="36.1" y="45.4" width="46" height="4.36" rx="1"/><path class="cls-2" d="M27.2,81.2H14.1a2.6,2.6,0,0,1-2.6-2.6V65.5a2.6,2.6,0,0,1,2.6-2.6H27.2a2.6,2.6,0,0,1,2.6,2.6V78.6A2.6,2.6,0,0,1,27.2,81.2ZM14.4,65.5a.3.3,0,0,0-.3.3V78.3a.3.3,0,0,0,.3.3H26.9a.3.3,0,0,0,.3-.3V65.8a.3.3,0,0,0-.3-.3Z"/><path class="cls-2" d="M19.9,75.4l-.5-.2-2.3-2.1a.9.9,0,0,1-.1-1.3.8.8,0,0,1,1.2-.1l1.6,1.5L23,69a.8.8,0,0,1,1.2-.1.9.9,0,0,1,.1,1.3l-3.7,4.9a.9.9,0,0,1-.6.3Z"/><rect class="cls-2" x="36.1" y="69" width="46" height="4.36" rx="1"/></g></svg>