<svg xmlns="http://www.w3.org/2000/svg" xmlns:xlink="http://www.w3.org/1999/xlink" viewBox="0 0 96 96"><defs><style>.cls-1{fill:url(#linear-gradient);}.cls-2,.cls-3{fill:#f9f5ff;}.cls-2{fill-rule:evenodd;}</style><linearGradient id="linear-gradient" x1="291.15" y1="91.85" x2="199.85" y2="183.15" gradientTransform="translate(185.5 -197.5) rotate(90)" gradientUnits="userSpaceOnUse"><stop offset="0" stop-color="#701cfd"/><stop offset="0.23" stop-color="#7d1dfe"/><stop offset="0.7" stop-color="#9520ff"/><stop offset="1" stop-color="#9d21ff"/></linearGradient></defs><title>richicons</title><g id="Layer_1" data-name="Layer 1"><rect class="cls-1" width="96" height="96" rx="8"/><polygon class="cls-2" points="73.4 25.3 77 29.2 69.7 29.2 73.4 25.3"/><path class="cls-2" d="M12.7,20a3.6,3.6,0,0,1,3.5-3.6H80.5A3.6,3.6,0,0,1,84,20V34.3a3.5,3.5,0,0,1-3.5,3.5H16.2a3.5,3.5,0,0,1-3.5-3.5Zm3.5,0H62.6V34.3H16.2Zm50,0H80.4V34.3H66.2Z"/><rect class="cls-3" x="14" y="46.5" width="49.4" height="5.14" rx="1"/><rect class="cls-3" x="14" y="60.3" width="49.4" height="5.14" rx="1"/><rect class="cls-3" x="14" y="74.2" width="49.4" height="5.14" rx="1"/></g></svg>